<?xml version="1.0" encoding="UTF-8" standalone="no"?>
<svg
   xmlns:dc="http://purl.org/dc/elements/1.1/"
   xmlns:cc="http://creativecommons.org/ns#"
   xmlns:rdf="http://www.w3.org/1999/02/22-rdf-syntax-ns#"
   xmlns:svg="http://www.w3.org/2000/svg"
   xmlns="http://www.w3.org/2000/svg"
   xmlns:sodipodi="http://sodipodi.sourceforge.net/DTD/sodipodi-0.dtd"
   xmlns:inkscape="http://www.inkscape.org/namespaces/inkscape"
   inkscape:version="1.0beta1 (32d4812, 2019-09-19)"
   height="300mm"
   width="300mm"
   sodipodi:docname="ktx_app.svg"
   id="svg12"
   version="1.1"
   fill="#306496"
   viewBox="0 0 1133.8583 1133.8583">
  <metadata
     id="metadata18">
    <rdf:RDF>
      <cc:Work
         rdf:about="">
        <dc:format>image/svg+xml</dc:format>
        <dc:type
           rdf:resource="http://purl.org/dc/dcmitype/StillImage" />
        <dc:title></dc:title>
      </cc:Work>
    </rdf:RDF>
  </metadata>
  <defs
     id="defs16" />
  <sodipodi:namedview
     inkscape:current-layer="svg12"
     inkscape:window-maximized="0"
     inkscape:window-y="77"
     inkscape:window-x="2031"
     inkscape:cy="560"
     inkscape:cx="348.57143"
     inkscape:zoom="0.35"
     inkscape:pagecheckerboard="true"
     width="300mm"
     units="mm"
     inkscape:showpageshadow="true"
     showborder="true"
     showgrid="false"
     id="namedview14"
     inkscape:window-height="1192"
     inkscape:window-width="1710"
     inkscape:pageshadow="2"
     inkscape:pageopacity="1"
     guidetolerance="10"
     gridtolerance="10"
     objecttolerance="10"
     borderopacity="1"
     inkscape:document-rotation="0"
     bordercolor="#666666"
     pagecolor="#ffffff" />
  <rect
     ry="75.590553"
     rx="75.590553"
     y="188.97638"
     x="3.7142859"
     height="755.90552"
     width="1133.8583"
     id="rect20"
     style="fill:#ffffff;fill-rule:evenodd;stroke-width:0.997731" />
  <path
     style="stroke-width:1.30899"
     inkscape:connector-curvature="0"
     id="path10"
     d="M 187.97035,705.65725 H 94.143383 C 110.20714,613.99677 126.3926,522.47709 142.45636,430.6758 h 93.70528 c -0.1217,0.704 -0.1217,1.5488 -0.24339,2.3936 -2.19052,12.24955 -4.25933,24.35831 -6.44985,36.60787 -0.24339,1.1264 -0.73017,2.53439 -1.46034,3.51999 -21.90513,32.10229 -41.74144,65.47177 -60.4825,99.54525 -8.76205,16.05115 -17.28071,32.10229 -25.79937,48.29423 -0.1217,0.2816 -0.36509,0.704 -0.24339,1.2672 l 13.14308,-14.78395 c 31.03226,-34.91828 62.18623,-69.69576 94.67883,-102.92444 27.01633,-27.59671 54.88452,-53.92621 83.60458,-79.12933 16.30715,-14.22075 32.37092,-28.7231 49.77333,-40.83186 30.42379,-21.40152 61.94283,-39.28306 94.67883,-52.79981 30.91057,-12.81276 61.94284,-21.40153 93.2185,-25.48471 26.65124,-3.51999 52.8157,-3.66079 78.24999,-0.1408 51.11197,7.18077 95.5307,27.7375 132.40434,63.35978 13.38647,12.95355 24.94751,27.5967 35.2916,43.78864 2.3122,3.51999 4.25933,7.32158 6.20645,11.26397 -3.52916,-3.80159 -6.93662,-7.74398 -10.70917,-11.26397 -15.3336,-14.78394 -33.58787,-24.78071 -53.18079,-32.38388 -23.85225,-9.29277 -49.16485,-14.50235 -75.32931,-17.03674 -21.05326,-1.9712 -42.47161,-2.112 -64.13335,-0.4224 -26.40785,2.11199 -52.9374,7.03997 -79.46694,15.20635 -25.1909,7.88477 -49.89502,18.44473 -73.74727,33.36948 -16.91563,10.55996 -32.736,23.37272 -48.55637,36.32627 -27.7465,22.80952 -53.91096,48.01264 -79.71034,73.77895 -4.74611,4.78718 -9.61391,9.57436 -14.48172,14.50235 28.47667,56.179 56.95334,112.35801 85.5517,168.81861 H 286.66513 c -1.94712,0 -3.04238,-0.704 -3.89424,-2.53439 -14.72512,-33.65108 -29.45023,-67.44297 -44.29704,-101.09405 -0.2434,-0.5632 -0.60848,-1.2672 -1.09526,-1.97119 -6.44985,5.49118 -12.77799,10.98236 -19.10614,16.47354 -5.1112,4.36478 -10.1007,8.87037 -15.2119,13.09435 -1.58203,1.2672 -2.31221,2.67519 -2.67729,4.78719 -3.89425,22.38712 -7.91019,44.91504 -11.80443,67.30216 -0.24339,1.5488 -0.36509,2.67519 -0.60848,4.08319 z m 97.23444,5.35038 c 4.62441,4.50558 8.64036,9.01117 13.14308,12.95356 16.67223,14.50235 36.26516,23.65431 57.07503,30.41269 20.93157,6.75838 42.715,10.55996 65.10691,12.39036 22.27022,1.83039 44.90552,1.68959 67.9059,-0.704 24.70412,-2.53439 49.40824,-7.32158 74.11236,-15.48795 22.87869,-7.60317 42.8367,-16.75514 64.13335,-31.53909 13.26477,-9.15197 27.6248,-21.26072 39.67262,-32.66548 38.45568,-36.32628 75.20762,-75.04614 111.10769,-114.61081 3.28577,-3.51998 6.44984,-7.18077 9.73561,-10.84156 0.24339,-0.2816 0.36509,-0.4224 0.73017,-0.98559 C 763.34509,516.9859 738.64097,474.04205 713.69346,430.535 h 107.70022 c 1.94713,0 2.92069,0.704 3.77255,2.3936 8.15358,17.31834 16.42885,34.63668 24.58243,51.81422 0.36508,0.70399 0.73017,1.26719 1.33864,2.25279 11.43935,-14.50235 22.757,-28.7231 33.95295,-42.94385 3.04238,-3.94239 5.96307,-7.88477 9.12714,-11.82716 0.73017,-0.8448 1.94712,-1.6896 2.79899,-1.6896 35.77837,-0.14079 108.55212,0 108.55212,0 0,0 -5.71975,6.47678 -8.39695,9.43357 -36.0218,40.40946 -72.0436,80.81892 -108.18705,121.08758 -1.46034,1.5488 -1.70373,2.67519 -0.85187,4.22399 3.89425,6.61757 7.6668,13.37595 11.56104,19.99353 l 28.11158,47.30863 33.2228,55.75661 c 3.2858,5.63198 10.2224,17.31834 10.2224,17.31834 H 857.65884 c -1.70373,0 -2.67729,-0.5632 -3.40746,-2.11199 L 823.5842,635.96149 c -0.1217,-0.2816 -0.24339,-0.4224 -0.48678,-0.8448 -0.73018,0.704 -1.33865,1.408 -2.06882,2.112 -22.51361,24.35831 -27.38141,30.27189 -67.41912,73.07494 -35.65669,38.15667 -72.89541,65.19018 -116.21889,84.90211 -26.28615,11.96796 -55.2496,19.99353 -81.90084,25.20311 -27.7465,5.35038 -55.00622,7.03998 -81.77915,4.92798 -28.96345,-2.11199 -56.58825,-8.44797 -82.38763,-19.43033 -32.24922,-13.79835 -60.3608,-33.79188 -83.36119,-61.67019 -7.91018,-9.57436 -15.0902,-19.85273 -21.41834,-30.83509 -0.60848,-0.5632 -0.85187,-1.26719 -1.33865,-2.39359 z M 712.8416,430.6758 c -4.01594,23.09112 -8.03188,45.90065 -12.16952,69.27336 h -86.89035 c -12.04782,68.71017 -24.09564,137.13873 -36.14346,205.70809 H 483.6896 c 12.04782,-68.42856 24.09564,-136.85713 36.14347,-205.70809 h -86.89035 c 4.13763,-23.23192 8.15357,-46.18224 12.16951,-69.27336 z m 289.9996,248.22954 h -8.88375 v 26.89271 h -7.7885 v -26.89271 h -9.0055 v -7.74397 h 25.67775 z m 3.5292,-7.74397 h 11.4393 l 5.2329,23.09112 h 0.1217 l 5.1112,-23.09112 h 11.4394 v 34.63668 h -7.3018 v -26.32951 h -0.1216 l -6.2065,26.32951 h -5.9631 l -6.3281,-26.32951 h -0.1217 v 26.32951 h -7.3017 z" />
</svg>
